<?xml version="1.0" encoding="iso-8859-1"?>
<!-- Uploaded to: SVG Repo, www.svgrepo.com, Generator: SVG Repo Mixer Tools -->
<svg height="800px" width="800px" version="1.1" id="Layer_1" xmlns="http://www.w3.org/2000/svg" xmlns:xlink="http://www.w3.org/1999/xlink" 
	 viewBox="0 0 512 512" xml:space="preserve">
<path style="fill:#8AD5DD;" d="M94.608,322.788h57.4l3.792-3.704l3.632,3.704h64.704V220.636h63.736v102.152h64.696l3.632-3.704
	l3.792,3.704h57.4c52.032,0,94.608-42.576,94.608-94.608s-42.576-94.608-94.608-94.608h-7.576
	c-7.544-31.896-36.136-55.656-70.336-55.656c-8.312,0-16.256,1.472-23.688,4.048c-16.728-47.696-62.032-81.96-115.448-81.96
	c-67.616,0-122.432,54.816-122.432,122.432c0,4.256,0.224,8.464,0.648,12.608C34.112,142.74,0,181.62,0,228.18
	C0,280.212,42.576,322.788,94.608,322.788z"/>
<polygon style="fill:#2D2D2D;" points="352.568,322.788 287.864,388.748 287.864,322.788 287.864,220.636 224.136,220.636 
	224.136,322.788 224.136,388.756 159.432,322.788 155.8,319.084 152.008,322.788 110.32,363.46 256,511.996 401.68,363.46 
	359.992,322.788 356.2,319.084 "/>
</svg>